<svg width="400" height="70" viewBox="0 0 400 70" fill="none" xmlns="http://www.w3.org/2000/svg">
<path d="M34.6311 0.299805C15.5048 0.299805 0 15.8803 0 35.0998C0 54.3193 15.5048 69.8998 34.6311 69.8998C53.7572 69.8998 69.2621 54.3193 69.2621 35.0998C69.2621 15.8803 53.7572 0.299805 34.6311 0.299805ZM24.2417 52.4998H17.3155V17.6998H24.2417V52.4998ZM51.9466 52.4998H31.168V45.5398H51.9466V52.4998ZM51.9466 38.5757H31.168V31.6157H51.9466V38.5757ZM51.9466 24.6598H31.168V17.6998H51.9466V24.6598Z" fill="white"/>
<path d="M100.279 45.927C102.157 47.838 104.516 48.7928 107.356 48.7928C109.738 48.7928 111.696 48.2867 113.231 47.2736C114.766 46.2615 115.762 44.8344 116.22 42.9927H123.504C122.862 46.6297 121.075 49.5412 118.144 51.7273C115.212 53.914 111.616 55.007 107.356 55.007C103.921 55.007 100.908 54.2592 98.3208 52.763C95.7322 51.2674 93.7172 49.2533 92.2742 46.7214C90.8311 44.1902 90.0861 41.4511 90.041 38.5047H97.1184C97.347 41.5428 98.4002 44.0176 100.279 45.927ZM96.981 36.2262C96.981 35.4441 97.0722 34.4084 97.2558 33.1191H115.877C115.693 30.6334 114.788 28.6311 113.162 27.1119C111.536 25.5929 109.372 24.8335 106.669 24.8335C104.149 24.8335 102.076 25.5703 100.451 27.0429C98.8243 28.5166 97.7594 30.5417 97.2558 33.1191H90.1784C90.5907 30.4953 91.5065 28.1132 92.9269 25.9727C94.3462 23.8322 96.2358 22.1525 98.5956 20.9322C100.954 19.7131 103.646 19.1025 106.669 19.1025C110.196 19.1025 113.208 19.8739 115.705 21.4155C118.201 22.9583 120.079 24.9833 121.339 27.4917C122.599 30.0012 123.229 32.7511 123.229 35.7428C123.229 36.5715 123.183 37.4927 123.091 38.5047H97.1184C97.0259 37.4 96.981 36.6404 96.981 36.2262Z" fill="white"/>
<path d="M128.311 11.3015H122.814V4.94922H135.664V54.4557H128.311V11.3015Z" fill="white"/>
<path d="M150.025 45.927C151.903 47.838 154.262 48.7928 157.102 48.7928C159.484 48.7928 161.442 48.2867 162.977 47.2736C164.512 46.2615 165.508 44.8344 165.966 42.9927H173.25C172.608 46.6297 170.821 49.5412 167.89 51.7273C164.958 53.914 161.363 55.007 157.102 55.007C153.667 55.007 150.654 54.2592 148.067 52.763C145.478 51.2674 143.463 49.2533 142.02 46.7214C140.577 44.1902 139.832 41.4511 139.787 38.5047H146.864C147.093 41.5428 148.146 44.0176 150.025 45.927ZM146.727 36.2262C146.727 35.4441 146.818 34.4084 147.002 33.1191H165.623C165.439 30.6334 164.534 28.6311 162.909 27.1119C161.282 25.5929 159.118 24.8335 156.415 24.8335C153.896 24.8335 151.822 25.5703 150.197 27.0429C148.57 28.5166 147.505 30.5417 147.002 33.1191H139.925C140.337 30.4953 141.253 28.1132 142.673 25.9727C144.092 23.8322 145.982 22.1525 148.342 20.9322C150.7 19.7131 153.392 19.1025 156.415 19.1025C159.942 19.1025 162.954 19.8739 165.451 21.4155C167.947 22.9583 169.825 24.9833 171.085 27.4917C172.345 30.0012 172.975 32.7511 172.975 35.7428C172.975 36.5715 172.929 37.4927 172.838 38.5047H146.864C146.772 37.4 146.727 36.6404 146.727 36.2262Z" fill="white"/>
<path d="M180.212 25.9381H174.715V19.6549H187.495V25.5239C188.32 23.5453 189.625 21.9799 191.412 20.8287C193.198 19.6785 195.328 19.1025 197.802 19.1025C200.413 19.1025 202.715 19.7239 204.708 20.9668C206.7 22.2097 208.04 23.9131 208.727 26.0762C209.506 24.0513 210.96 22.3823 213.09 21.0703C215.221 19.7585 217.545 19.1025 220.065 19.1025C223.82 19.1025 226.798 20.3001 228.997 22.693C231.196 25.087 232.295 28.2631 232.295 32.2215V54.4544H225.012V34.2929C225.012 31.6237 224.37 29.4834 223.088 27.8715C221.805 26.2608 220.087 25.4548 217.935 25.4548C215.506 25.4548 213.56 26.4214 212.094 28.3548C210.628 30.2881 209.895 32.6357 209.895 35.3975V54.4544H202.543V34.2929C202.543 31.6237 201.913 29.4834 200.654 27.8715C199.393 26.2608 197.687 25.4548 195.535 25.4548C193.152 25.4548 191.216 26.4334 189.728 28.3893C188.239 30.3465 187.495 32.6822 187.495 35.3975V54.4544H180.212V25.9381Z" fill="white"/>
<path d="M246.592 45.927C248.469 47.838 250.828 48.7928 253.669 48.7928C256.05 48.7928 258.008 48.2867 259.544 47.2736C261.078 46.2615 262.074 44.8344 262.533 42.9927H269.816C269.174 46.6297 267.388 49.5412 264.457 51.7273C261.524 53.914 257.929 55.007 253.669 55.007C250.233 55.007 247.22 54.2592 244.633 52.763C242.045 51.2674 240.03 49.2533 238.587 46.7214C237.144 44.1902 236.399 41.4511 236.354 38.5047H243.431C243.659 41.5428 244.713 44.0176 246.592 45.927ZM243.293 36.2262C243.293 35.4441 243.385 34.4084 243.568 33.1191H262.189C262.006 30.6334 261.1 28.6311 259.475 27.1119C257.849 25.5929 255.684 24.8335 252.982 24.8335C250.462 24.8335 248.389 25.5703 246.763 27.0429C245.137 28.5166 244.072 30.5417 243.568 33.1191H236.491C236.903 30.4953 237.819 28.1132 239.239 25.9727C240.659 23.8322 242.548 22.1525 244.908 20.9322C247.267 19.7131 249.958 19.1025 252.982 19.1025C256.509 19.1025 259.52 19.8739 262.018 21.4155C264.514 22.9583 266.391 24.9833 267.651 27.4917C268.911 30.0012 269.541 32.7511 269.541 35.7428C269.541 36.5715 269.495 37.4927 269.404 38.5047H243.431C243.338 37.4 243.293 36.6404 243.293 36.2262Z" fill="white"/>
<path d="M276.499 25.9381H271.002V19.6549H283.782V25.5239C284.698 23.4525 286.129 21.8644 288.077 20.7596C290.024 19.6549 292.279 19.1025 294.845 19.1025C298.738 19.1025 301.864 20.3798 304.224 22.9347C306.583 25.4894 307.763 28.8381 307.763 32.9809V54.4544H300.411V34.5001C300.411 31.8762 299.7 29.7595 298.281 28.1476C296.86 26.5369 294.982 25.731 292.646 25.731C290.08 25.731 287.962 26.6524 286.29 28.4928C284.618 30.3345 283.782 32.6822 283.782 35.5358V54.4544H276.499V25.9381Z" fill="white"/>
<path d="M320.632 51.3485C318.501 49.2771 317.436 46.4235 317.436 42.7869V25.9393H310.428V19.6562H317.436V8.88477H324.72V19.6562H334.752V25.9393H324.72V42.5106C324.72 44.3059 325.189 45.6987 326.128 46.6878C327.067 47.6784 328.362 48.1723 330.011 48.1723H334.752V54.4556H329.255C325.636 54.4556 322.761 53.4199 320.632 51.3485Z" fill="white"/>
<path d="M345.569 52.6939C342.843 51.1521 340.713 49.0234 339.179 46.307C337.644 43.5915 336.877 40.5071 336.877 37.0548C336.877 33.6024 337.644 30.5191 339.179 27.8024C340.713 25.087 342.843 22.9583 345.569 21.4155C348.294 19.8739 351.375 19.1025 354.811 19.1025C358.246 19.1025 361.327 19.8739 364.052 21.4155C366.777 22.9583 368.907 25.087 370.443 27.8024C371.977 30.5191 372.745 33.6024 372.745 37.0548C372.745 40.5071 371.977 43.5915 370.443 46.307C368.907 49.0234 366.777 51.1521 364.052 52.6939C361.327 54.2366 358.246 55.007 354.811 55.007C351.375 55.007 348.294 54.2366 345.569 52.6939ZM362.403 45.375C364.35 43.2344 365.324 40.4618 365.324 37.0548C365.324 33.6488 364.35 30.8751 362.403 28.7346C360.456 26.594 357.925 25.5239 354.811 25.5239C351.695 25.5239 349.176 26.594 347.253 28.7346C345.328 30.8751 344.366 33.6488 344.366 37.0548C344.366 40.4618 345.328 43.2344 347.253 45.375C349.176 47.5153 351.695 48.5854 354.811 48.5854C357.925 48.5854 360.456 47.5153 362.403 45.375Z" fill="white"/>
<path d="M379.456 25.9385H373.959V19.6553H386.739V26.1456C387.564 23.8908 388.698 22.2445 390.141 21.2088C391.584 20.1731 393.496 19.6553 395.878 19.6553H400.001V25.9385H394.847C392.007 25.9385 389.945 27.0551 388.663 29.2873C387.38 31.5205 386.739 34.5693 386.739 38.436V54.4547H379.456V25.9385Z" fill="white"/>
</svg>
