<svg width="101" height="101" viewBox="0 0 101 101" fill="none" xmlns="http://www.w3.org/2000/svg">
<path d="M44.2438 3.52609C48.1028 1.33882 52.8269 1.33882 56.6859 3.52609L72.4171 12.4425L88.0045 21.6079C91.8282 23.8562 94.1903 27.9474 94.2255 32.3831L94.3693 50.4648L94.2255 68.5466C94.1903 72.9822 91.8282 77.0735 88.0045 79.3218L72.4171 88.4872L56.6859 97.4036C52.8269 99.5909 48.1028 99.5909 44.2438 97.4036L28.5126 88.4872L12.9252 79.3218C9.1015 77.0735 6.73942 72.9822 6.70416 68.5466L6.56043 50.4648L6.70416 32.3831C6.73942 27.9474 9.10149 23.8562 12.9252 21.6079L28.5126 12.4425L44.2438 3.52609Z" fill="#E575B9"/>
<path d="M45.1318 26.9648C46.8104 21.7989 54.1193 21.7989 55.7979 26.9648L59.4258 38.1309H71.166C76.5979 38.1309 78.8563 45.0817 74.4619 48.2744L64.9639 55.1758L68.5918 66.3418C70.2703 71.5078 64.3573 75.8031 59.9629 72.6104L50.4648 65.71L40.9658 72.6104C36.5714 75.8031 30.6594 71.5078 32.3379 66.3418L35.9658 55.1758L26.4668 48.2744C22.0729 45.0816 24.3312 38.1311 29.7627 38.1309H41.5039L45.1318 26.9648Z" stroke="white" stroke-width="5.6072"/>
<path d="M67.288 62.3792C64.4896 63.1316 65.6482 66.3517 65.8819 67.2862L60.9778 65.8837L53.9688 30.8394C55.3706 35.0448 56.7724 35.7457 58.8751 35.0448C60.9778 34.3439 60.0432 31.073 59.576 29.4376L67.288 25.9331L81.3039 31.5403L79.9021 57.4736L71.4937 65.8837C71.0264 64.4819 70.2013 61.6513 67.288 62.3792Z" fill="#E575B9"/>
<path d="M53.1406 44.1567H77.2341" stroke="white" stroke-width="6.77537" stroke-linecap="round" stroke-linejoin="round"/>
<path d="M65.1875 32.1099V56.2033" stroke="white" stroke-width="6.77537" stroke-linecap="round" stroke-linejoin="round"/>
</svg>
